<svg xmlns="http://www.w3.org/2000/svg" xmlns:xlink="http://www.w3.org/1999/xlink" width="500" zoomAndPan="magnify" viewBox="0 0 375 374.999991" height="500" preserveAspectRatio="xMidYMid meet" version="1.0"><defs><g/><clipPath id="e3dc796e40"><path d="M 127 124 L 232 124 L 232 264 L 127 264 Z M 127 124 " clip-rule="nonzero"/></clipPath><clipPath id="f00f0e037e"><path d="M 199.945312 124.644531 L 231.941406 143.953125 L 159.636719 263.757812 L 127.644531 244.449219 Z M 199.945312 124.644531 " clip-rule="nonzero"/></clipPath><clipPath id="8102be9468"><path d="M 130 143 L 202 143 L 202 215 L 130 215 Z M 130 143 " clip-rule="nonzero"/></clipPath><clipPath id="f2a646e03b"><path d="M 157.789062 143.722656 L 201.386719 170.035156 L 174.582031 214.453125 L 130.984375 188.140625 Z M 157.789062 143.722656 " clip-rule="nonzero"/></clipPath><clipPath id="10d4235c9a"><path d="M 179 152 L 256 152 L 256 223 L 179 223 Z M 179 152 " clip-rule="nonzero"/></clipPath><clipPath id="bc7435f61c"><path d="M 203.742188 152.039062 L 255.503906 183.28125 L 231.558594 222.960938 L 179.792969 191.71875 Z M 203.742188 152.039062 " clip-rule="nonzero"/></clipPath></defs><rect x="-37.5" width="450" fill="#ffffff" y="-37.499999" height="449.999989" fill-opacity="1"/><rect x="-37.5" width="450" fill="#ffffff" y="-37.499999" height="449.999989" fill-opacity="1"/><g fill="#000000" fill-opacity="1"><g transform="translate(53.649892, 317.835585)"><g><path d="M 1.703125 -12.90625 L 6.84375 -12.90625 C 8.46875 -12.90625 9.722656 -12.519531 10.609375 -11.75 C 11.503906 -10.976562 11.953125 -9.894531 11.953125 -8.5 C 11.953125 -7.039062 11.503906 -5.90625 10.609375 -5.09375 C 9.722656 -4.289062 8.46875 -3.890625 6.84375 -3.890625 L 3.875 -3.890625 L 3.875 0 L 1.703125 0 Z M 3.875 -10.953125 L 3.875 -5.84375 L 6.75 -5.84375 C 8.820312 -5.84375 9.859375 -6.707031 9.859375 -8.4375 C 9.859375 -10.113281 8.820312 -10.953125 6.75 -10.953125 Z M 3.875 -10.953125 "/></g></g></g><g fill="#000000" fill-opacity="1"><g transform="translate(73.426054, 317.835585)"><g><path d="M 9.875 0 L 7.515625 -3.90625 C 7.398438 -3.894531 7.207031 -3.890625 6.9375 -3.890625 L 3.875 -3.890625 L 3.875 0 L 1.703125 0 L 1.703125 -12.90625 L 6.9375 -12.90625 C 8.582031 -12.90625 9.859375 -12.519531 10.765625 -11.75 C 11.671875 -10.976562 12.125 -9.894531 12.125 -8.5 C 12.125 -7.46875 11.894531 -6.59375 11.4375 -5.875 C 10.976562 -5.164062 10.316406 -4.644531 9.453125 -4.3125 L 12.359375 0 Z M 3.875 -5.84375 L 6.9375 -5.84375 C 9.019531 -5.84375 10.0625 -6.707031 10.0625 -8.4375 C 10.0625 -10.113281 9.019531 -10.953125 6.9375 -10.953125 L 3.875 -10.953125 Z M 3.875 -5.84375 "/></g></g></g><g fill="#000000" fill-opacity="1"><g transform="translate(94.123716, 317.835585)"><g><path d="M 3.875 0 L 1.703125 0 L 1.703125 -12.90625 L 3.875 -12.90625 Z M 3.875 0 "/></g></g></g><g fill="#000000" fill-opacity="1"><g transform="translate(107.062412, 317.835585)"><g><path d="M 7.453125 0 L 5.203125 0 L 0.0625 -12.90625 L 2.390625 -12.90625 L 6.375 -2.421875 L 10.40625 -12.90625 L 12.671875 -12.90625 Z M 7.453125 0 "/></g></g></g><g fill="#000000" fill-opacity="1"><g transform="translate(127.151882, 317.835585)"><g><path d="M 10.03125 -2.90625 L 3.515625 -2.90625 L 2.28125 0 L 0.015625 0 L 5.71875 -12.90625 L 7.953125 -12.90625 L 13.59375 0 L 11.265625 0 Z M 9.203125 -4.84375 L 6.765625 -10.578125 L 4.328125 -4.84375 Z M 9.203125 -4.84375 "/></g></g></g><g fill="#000000" fill-opacity="1"><g transform="translate(148.125988, 317.835585)"><g><path d="M 10.515625 -10.953125 L 6.421875 -10.953125 L 6.421875 0 L 4.234375 0 L 4.234375 -10.953125 L 0.171875 -10.953125 L 0.171875 -12.90625 L 10.515625 -12.90625 Z M 10.515625 -10.953125 "/></g></g></g><g fill="#000000" fill-opacity="1"><g transform="translate(166.169741, 317.835585)"><g><path d="M 10.921875 -10.953125 L 3.875 -10.953125 L 3.875 -7.46875 L 10.171875 -7.46875 L 10.171875 -5.515625 L 3.875 -5.515625 L 3.875 -1.953125 L 11.140625 -1.953125 L 11.140625 0 L 1.703125 0 L 1.703125 -12.90625 L 10.921875 -12.90625 Z M 10.921875 -10.953125 "/></g></g></g><g fill="#000000" fill-opacity="1"><g transform="translate(185.632591, 317.835585)"><g/></g></g><g fill="#000000" fill-opacity="1"><g transform="translate(197.760381, 317.835585)"><g><path d="M 1.703125 -12.90625 L 6.984375 -12.90625 C 8.910156 -12.90625 10.503906 -12.296875 11.765625 -11.078125 C 13.023438 -9.859375 13.65625 -8.316406 13.65625 -6.453125 C 13.65625 -4.585938 13.019531 -3.046875 11.75 -1.828125 C 10.488281 -0.609375 8.882812 0 6.9375 0 L 1.703125 0 Z M 3.875 -10.953125 L 3.875 -1.953125 L 7.046875 -1.953125 C 8.304688 -1.953125 9.359375 -2.375 10.203125 -3.21875 C 11.046875 -4.0625 11.46875 -5.132812 11.46875 -6.4375 C 11.46875 -7.738281 11.035156 -8.816406 10.171875 -9.671875 C 9.304688 -10.523438 8.234375 -10.953125 6.953125 -10.953125 Z M 3.875 -10.953125 "/></g></g></g><g fill="#000000" fill-opacity="1"><g transform="translate(219.416379, 317.835585)"><g><path d="M 9.875 0 L 7.515625 -3.90625 C 7.398438 -3.894531 7.207031 -3.890625 6.9375 -3.890625 L 3.875 -3.890625 L 3.875 0 L 1.703125 0 L 1.703125 -12.90625 L 6.9375 -12.90625 C 8.582031 -12.90625 9.859375 -12.519531 10.765625 -11.75 C 11.671875 -10.976562 12.125 -9.894531 12.125 -8.5 C 12.125 -7.46875 11.894531 -6.59375 11.4375 -5.875 C 10.976562 -5.164062 10.316406 -4.644531 9.453125 -4.3125 L 12.359375 0 Z M 3.875 -5.84375 L 6.9375 -5.84375 C 9.019531 -5.84375 10.0625 -6.707031 10.0625 -8.4375 C 10.0625 -10.113281 9.019531 -10.953125 6.9375 -10.953125 L 3.875 -10.953125 Z M 3.875 -5.84375 "/></g></g></g><g fill="#000000" fill-opacity="1"><g transform="translate(240.114036, 317.835585)"><g><path d="M 3.875 0 L 1.703125 0 L 1.703125 -12.90625 L 3.875 -12.90625 Z M 3.875 0 "/></g></g></g><g fill="#000000" fill-opacity="1"><g transform="translate(253.052729, 317.835585)"><g><path d="M 7.453125 0 L 5.203125 0 L 0.0625 -12.90625 L 2.390625 -12.90625 L 6.375 -2.421875 L 10.40625 -12.90625 L 12.671875 -12.90625 Z M 7.453125 0 "/></g></g></g><g fill="#000000" fill-opacity="1"><g transform="translate(273.142194, 317.835585)"><g><path d="M 10.921875 -10.953125 L 3.875 -10.953125 L 3.875 -7.46875 L 10.171875 -7.46875 L 10.171875 -5.515625 L 3.875 -5.515625 L 3.875 -1.953125 L 11.140625 -1.953125 L 11.140625 0 L 1.703125 0 L 1.703125 -12.90625 L 10.921875 -12.90625 Z M 10.921875 -10.953125 "/></g></g></g><g fill="#000000" fill-opacity="1"><g transform="translate(292.605044, 317.835585)"><g><path d="M 9.875 0 L 7.515625 -3.90625 C 7.398438 -3.894531 7.207031 -3.890625 6.9375 -3.890625 L 3.875 -3.890625 L 3.875 0 L 1.703125 0 L 1.703125 -12.90625 L 6.9375 -12.90625 C 8.582031 -12.90625 9.859375 -12.519531 10.765625 -11.75 C 11.671875 -10.976562 12.125 -9.894531 12.125 -8.5 C 12.125 -7.46875 11.894531 -6.59375 11.4375 -5.875 C 10.976562 -5.164062 10.316406 -4.644531 9.453125 -4.3125 L 12.359375 0 Z M 3.875 -5.84375 L 6.9375 -5.84375 C 9.019531 -5.84375 10.0625 -6.707031 10.0625 -8.4375 C 10.0625 -10.113281 9.019531 -10.953125 6.9375 -10.953125 L 3.875 -10.953125 Z M 3.875 -5.84375 "/></g></g></g><g fill="#000000" fill-opacity="1"><g transform="translate(80.503036, 196.821408)"><g><path d="M 157.34375 -2.34375 C 157.726562 -2.34375 157.921875 -1.953125 157.921875 -1.171875 C 157.921875 -0.390625 157.726562 0 157.34375 0 C 153.3125 0 150.125 -0.0625 147.78125 -0.1875 L 134.71875 -0.390625 L 122.640625 -0.1875 C 120.679688 -0.0625 117.953125 0 114.453125 0 C 114.191406 0 114.0625 -0.390625 114.0625 -1.171875 C 114.0625 -1.953125 114.191406 -2.34375 114.453125 -2.34375 C 118.992188 -2.34375 122.335938 -2.695312 124.484375 -3.40625 C 126.628906 -4.125 128.054688 -5.390625 128.765625 -7.203125 C 129.484375 -9.023438 129.710938 -11.890625 129.453125 -15.796875 L 126.140625 -106.453125 L 80.515625 -1.359375 C 80.253906 -0.835938 79.738281 -0.578125 78.96875 -0.578125 C 78.3125 -0.578125 77.722656 -0.835938 77.203125 -1.359375 L 29.640625 -105.671875 L 29.4375 -106.0625 L 27.875 -20.28125 C 27.75 -13.519531 28.851562 -8.835938 31.1875 -6.234375 C 33.53125 -3.640625 37.890625 -2.34375 44.265625 -2.34375 C 44.515625 -2.34375 44.640625 -1.953125 44.640625 -1.171875 C 44.640625 -0.390625 44.515625 0 44.265625 0 C 40.617188 0 37.820312 -0.0625 35.875 -0.1875 L 25.34375 -0.390625 L 15.796875 -0.1875 C 14.109375 -0.0625 11.570312 0 8.1875 0 C 7.925781 0 7.796875 -0.390625 7.796875 -1.171875 C 7.796875 -1.953125 7.925781 -2.34375 8.1875 -2.34375 C 13.644531 -2.34375 17.507812 -3.671875 19.78125 -6.328125 C 22.0625 -8.992188 23.265625 -13.644531 23.390625 -20.28125 L 25.34375 -112.6875 C 21.3125 -117.238281 16.046875 -119.515625 9.546875 -119.515625 C 9.285156 -119.515625 9.15625 -119.90625 9.15625 -120.6875 C 9.15625 -121.46875 9.285156 -121.859375 9.546875 -121.859375 L 16.1875 -121.65625 C 17.476562 -121.53125 19.164062 -121.46875 21.25 -121.46875 C 23.332031 -121.46875 25.085938 -121.53125 26.515625 -121.65625 C 27.941406 -121.789062 29.046875 -121.859375 29.828125 -121.859375 C 31.648438 -121.859375 33.078125 -121.238281 34.109375 -120 C 35.148438 -118.769531 36.710938 -116.007812 38.796875 -111.71875 L 82.671875 -16.96875 L 126.34375 -116.984375 C 126.988281 -118.410156 127.863281 -119.578125 128.96875 -120.484375 C 130.070312 -121.398438 131.144531 -121.859375 132.1875 -121.859375 C 132.707031 -121.859375 133.550781 -121.789062 134.71875 -121.65625 C 135.894531 -121.53125 137.519531 -121.46875 139.59375 -121.46875 L 148.375 -121.65625 C 149.675781 -121.789062 151.691406 -121.859375 154.421875 -121.859375 C 154.679688 -121.859375 154.8125 -121.46875 154.8125 -120.6875 C 154.8125 -119.90625 154.679688 -119.515625 154.421875 -119.515625 C 147.660156 -119.515625 142.878906 -118.632812 140.078125 -116.875 C 137.285156 -115.125 135.957031 -111.648438 136.09375 -106.453125 L 139.796875 -15.796875 C 139.921875 -11.765625 140.40625 -8.835938 141.25 -7.015625 C 142.09375 -5.203125 143.71875 -3.96875 146.125 -3.3125 C 148.53125 -2.664062 152.269531 -2.34375 157.34375 -2.34375 Z M 157.34375 -2.34375 "/></g></g></g><g fill="#000000" fill-opacity="1"><g transform="translate(156.193842, 281.618236)"><g><path d="M 58.640625 0.796875 C 54.828125 0.796875 50.550781 0.597656 45.8125 0.203125 C 43.96875 0.0664062 41.695312 -0.0625 39 -0.1875 C 36.300781 -0.320312 33.304688 -0.390625 30.015625 -0.390625 L 16.984375 -0.203125 C 14.609375 -0.0664062 11.316406 0 7.109375 0 C 6.847656 0 6.71875 -0.394531 6.71875 -1.1875 C 6.71875 -1.976562 6.847656 -2.375 7.109375 -2.375 C 12.242188 -2.375 16.023438 -2.703125 18.453125 -3.359375 C 20.890625 -4.015625 22.566406 -5.296875 23.484375 -7.203125 C 24.410156 -9.117188 24.875 -12.050781 24.875 -16 L 24.875 -107.421875 C 24.875 -111.367188 24.445312 -114.265625 23.59375 -116.109375 C 22.738281 -117.953125 21.09375 -119.234375 18.65625 -119.953125 C 16.21875 -120.679688 12.4375 -121.046875 7.3125 -121.046875 C 7.039062 -121.046875 6.90625 -121.441406 6.90625 -122.234375 C 6.90625 -123.023438 7.039062 -123.421875 7.3125 -123.421875 L 16.984375 -123.21875 C 22.515625 -122.957031 26.859375 -122.828125 30.015625 -122.828125 C 34.617188 -122.828125 39.289062 -123.023438 44.03125 -123.421875 C 49.820312 -123.679688 53.773438 -123.8125 55.890625 -123.8125 C 69.710938 -123.8125 81.953125 -121.175781 92.609375 -115.90625 C 103.273438 -110.644531 111.535156 -103.472656 117.390625 -94.390625 C 123.253906 -85.304688 126.1875 -75.101562 126.1875 -63.78125 C 126.1875 -51.007812 123.125 -39.71875 117 -29.90625 C 110.875 -20.101562 102.675781 -12.535156 92.40625 -7.203125 C 82.144531 -1.867188 70.890625 0.796875 58.640625 0.796875 Z M 56.671875 -1.78125 C 67.734375 -1.78125 77.539062 -4.015625 86.09375 -8.484375 C 94.65625 -12.960938 101.335938 -19.546875 106.140625 -28.234375 C 110.941406 -36.921875 113.34375 -47.320312 113.34375 -59.4375 C 113.34375 -71.019531 111.070312 -81.484375 106.53125 -90.828125 C 101.988281 -100.179688 95.472656 -107.585938 86.984375 -113.046875 C 78.492188 -118.515625 68.71875 -121.25 57.65625 -121.25 C 51.863281 -121.25 47.421875 -120.914062 44.328125 -120.25 C 41.234375 -119.59375 38.960938 -118.242188 37.515625 -116.203125 C 36.066406 -114.171875 35.34375 -111.113281 35.34375 -107.03125 L 35.34375 -18.171875 C 35.34375 -14.222656 35.9375 -11.0625 37.125 -8.6875 C 38.3125 -6.320312 40.414062 -4.578125 43.4375 -3.453125 C 46.46875 -2.335938 50.878906 -1.78125 56.671875 -1.78125 Z M 56.671875 -1.78125 "/></g></g></g><g clip-path="url(#e3dc796e40)"><g clip-path="url(#f00f0e037e)"><path fill="#ffffff" d="M 199.945312 124.644531 L 231.941406 143.953125 L 159.605469 263.8125 L 127.613281 244.5 Z M 199.945312 124.644531 " fill-opacity="1" fill-rule="nonzero"/></g></g><g clip-path="url(#8102be9468)"><g clip-path="url(#f2a646e03b)"><path fill="#ffffff" d="M 157.789062 143.722656 L 201.386719 170.035156 L 174.5625 214.484375 L 130.964844 188.171875 Z M 157.789062 143.722656 " fill-opacity="1" fill-rule="nonzero"/></g></g><g clip-path="url(#10d4235c9a)"><g clip-path="url(#bc7435f61c)"><path fill="#ffffff" d="M 203.742188 152.039062 L 255.511719 183.285156 L 231.5625 222.964844 L 179.792969 191.71875 Z M 203.742188 152.039062 " fill-opacity="1" fill-rule="nonzero"/></g></g><path stroke-linecap="butt" transform="matrix(0.431053, -0.613753, 0.613753, 0.431053, 115.099605, 280.13216)" fill="none" stroke-linejoin="miter" d="M 0.000983918 1.498163 L 309.706039 1.499252 " stroke="#000000" stroke-width="3" stroke-opacity="1" stroke-miterlimit="4"/></svg>